<svg width="512" height="512" viewBox="0 0 512 512" fill="none" xmlns="http://www.w3.org/2000/svg">
<rect width="512" height="512" rx="76.95" fill="#70B6ED"/>
<path d="M136.308 335.923C136.308 335.923 181.135 404.231 255.846 404.231C330.558 404.231 375.385 335.923 375.385 335.923" stroke="white" stroke-width="28.5171" stroke-linecap="round" stroke-linejoin="round"/>
<path d="M203.932 291V111.855H288.628C297.012 111.855 304.541 113.31 311.214 116.218C317.887 118.956 323.533 122.806 328.153 127.768C332.944 132.73 336.623 138.804 339.189 145.99C341.756 153.006 343.039 160.705 343.039 169.089C343.039 177.644 341.756 185.43 339.189 192.445C336.623 199.46 332.944 205.449 328.153 210.411C323.533 215.373 317.887 219.308 311.214 222.217C304.541 224.954 297.012 226.323 288.628 226.323H242.944V291H203.932ZM242.944 192.445H284.008C289.826 192.445 294.36 190.99 297.611 188.082C301.033 185.002 302.744 180.553 302.744 174.736V163.443C302.744 157.625 301.033 153.262 297.611 150.354C294.36 147.274 289.826 145.734 284.008 145.734H242.944V192.445Z" fill="#FFF8F8"/>
</svg>
